<?xml version="1.0" encoding="UTF-8"?>
<svg version="1.1" xmlns="http://www.w3.org/2000/svg" width="384" height="384">
<path d="M0 0 C126.72 0 253.44 0 384 0 C384 126.72 384 253.44 384 384 C257.28 384 130.56 384 0 384 C0 257.28 0 130.56 0 0 Z " fill="#020202" transform="translate(0,0)"/>
<path d="M0 0 C126.72 0 253.44 0 384 0 C384 126.72 384 253.44 384 384 C257.28 384 130.56 384 0 384 C0 257.28 0 130.56 0 0 Z M199 19 C197.86304688 19.5465625 196.72609375 20.093125 195.5546875 20.65625 C186.60125432 24.98538253 177.99878226 29.81706535 169.83203125 35.51171875 C162.92142519 40.25652662 155.27636339 41.79256481 147.00390625 42.34765625 C140.02244967 42.94230068 133.47192363 44.77731307 126.75 46.6875 C126.11004089 46.86773712 125.47008179 47.04797424 124.81072998 47.2336731 C104.02888404 53.10220255 86.86718713 61.54107929 70 75 C69.24976562 75.58394531 68.49953125 76.16789062 67.7265625 76.76953125 C62.37294052 81.14883506 58.71092819 86.19863628 55 92 C54.32710937 93.02609375 53.65421875 94.0521875 52.9609375 95.109375 C43.66673074 109.659856 39.62538883 122.35441503 39.62939453 139.52685547 C39.62505071 141.60079002 39.58871516 143.67253783 39.55078125 145.74609375 C39.46957224 155.4923336 41.20295719 163.67423318 44 173 C44.37348133 174.59398107 44.72911066 176.1924238 45.0546875 177.796875 C46.63927319 185.4779604 48.52324858 191.91619077 52.625 198.71484375 C53.81247607 200.68834801 54.72168997 202.55203363 55.5625 204.6875 C56.69017935 207.28606545 57.76625705 209.24313558 59.3125 211.5625 C66.95373887 223.56686317 70.53144286 236.7523268 71.4375 250.875 C71.85851729 256.28467504 73.5534878 260.21108251 76 265 C76.49628906 266.11890625 76.99257812 267.2378125 77.50390625 268.390625 C84.27670674 283.43075999 95.5763588 290.04566099 110.26953125 296.41796875 C115.91896118 299.6912436 116.90808138 305.55665509 118.6875 311.4375 C124.43718698 329.29378267 135.8978974 347.72149117 152 358 C152.9384375 358.62777344 153.876875 359.25554687 154.84375 359.90234375 C166.6902342 367.54098022 179.66938744 375.14585753 194 376 C195.10730469 376.06832031 196.21460938 376.13664062 197.35546875 376.20703125 C209.49252079 376.57073869 221.02147048 374.18848313 232 369 C233.06734375 368.49726562 233.06734375 368.49726562 234.15625 367.984375 C249.94930893 359.85896062 263.01061206 346.73563274 272 331.5625 C272.51546387 330.69866699 273.03092773 329.83483398 273.56201172 328.94482422 C279.65785876 318.48905895 284.09570754 307.47436868 287.640625 295.91015625 C289.93533283 288.95248444 293.87501015 284.37572976 299.875 280.25 C311.91232997 271.56658258 318.16255229 256.06475878 321 242 C321.27650391 240.84951172 321.27650391 240.84951172 321.55859375 239.67578125 C322.16582668 235.99476747 322.2239835 232.3453597 322.25 228.625 C322.270625 227.89539063 322.29125 227.16578125 322.3125 226.4140625 C322.34973434 221.20125487 321.37805967 217.64802572 319 213 C317.92083333 211.72083333 317.92083333 211.72083333 315.375 211.625 C310.9080319 212.12132979 307.9996935 213.61457437 305 217 C304.18106309 220.00151646 304.43426069 222.7963864 304.6875 225.875 C304.7592645 227.57129644 304.82296298 229.26795186 304.87890625 230.96484375 C304.91000488 231.80901855 304.94110352 232.65319336 304.97314453 233.52294922 C305.01313279 237.21132093 304.63704306 240.78947967 304.125 244.4375 C303.96257812 245.61183594 303.80015625 246.78617188 303.6328125 247.99609375 C303.06758462 250.67918166 302.37488393 252.64883295 301 255 C299.68 254.67 298.36 254.34 297 254 C296.87641546 249.21290532 296.78567229 244.42673819 296.7253418 239.63842773 C296.70019432 238.0096825 296.66607122 236.38105015 296.62280273 234.75268555 C296.5621545 232.41166366 296.53379524 230.07213269 296.51171875 227.73046875 C296.48591232 227.00224411 296.4601059 226.27401947 296.43351746 225.52372742 C296.43237305 223.46166992 296.43237305 223.46166992 297 220 C299.39233398 218.16796875 299.39233398 218.16796875 302 217 C304.27001511 214.58000661 304.27001511 214.58000661 306.375 211.8125 C309.00601445 208.48133129 311.64655747 205.27025847 314.5625 202.1875 C321.68018833 194.09546455 326.29834446 184.0966897 329.89453125 174.03515625 C331 171 331 171 332.41796875 167.86328125 C336.38997618 158.70493468 338.50379109 148.63670893 341 139 C341.30333252 137.84250244 341.30333252 137.84250244 341.61279297 136.66162109 C349.56237506 104.993113 343.45421297 73.35348544 327.09472656 45.81982422 C322.28495556 37.82427715 317.62709143 32.36847358 310 27 C308.96875 26.19433594 307.9375 25.38867188 306.875 24.55859375 C298.48318139 18.07858908 290.17292014 13.95465351 280 11 C278.86304688 10.66097656 277.72609375 10.32195313 276.5546875 9.97265625 C250.84607415 3.84214076 222.33864407 6.885284 199 19 Z " fill="#FCFCFB" transform="translate(0,0)"/>
<path d="M0 0 C5.60161301 -0.35724573 9.01706833 0.60075172 14 3.125 C15.33848986 3.7775241 16.67837131 4.42720035 18.01953125 5.07421875 C18.69064941 5.40083496 19.36176758 5.72745117 20.05322266 6.06396484 C49.12342584 20.04128601 81.2631091 24.78062224 113 28 C115.34108363 48.76614628 116.49140382 69.26696603 116.39111328 90.16064453 C116.37376259 93.82009078 116.38436413 97.47889481 116.40143967 101.13832092 C116.51513458 129.85392362 116.51513458 129.85392362 113 143 C112.80519043 143.81460693 112.61038086 144.62921387 112.40966797 145.46850586 C111.96411077 147.31836772 111.48454905 149.15996675 111 151 C110.64421875 152.71896484 110.64421875 152.71896484 110.28125 154.47265625 C106.70122427 170.9228745 100.21584394 188.22579027 89 201 C87.90365234 202.28003906 87.90365234 202.28003906 86.78515625 203.5859375 C84.57107583 206.1065829 82.30214633 208.55980609 80 211 C79.34128906 211.72316406 78.68257812 212.44632813 78.00390625 213.19140625 C73.2129681 218.27153583 68.22326827 221.84597303 62 225 C60.90945312 225.56203125 59.81890625 226.1240625 58.6953125 226.703125 C46.66891743 232.23785305 34.10385488 233.40656457 21.42944336 229.09472656 C5.97859119 223.21183525 -8.07926069 214.20710334 -17 200 C-17.47050781 199.54367187 -17.94101563 199.08734375 -18.42578125 198.6171875 C-21.6650958 195.28945494 -23.7188889 191.01360055 -26 187 C-26.43699219 186.25878906 -26.87398437 185.51757812 -27.32421875 184.75390625 C-32.7569289 174.8653455 -35.64025865 163.15874692 -37 152 C-38.05058594 151.99742187 -39.10117188 151.99484375 -40.18359375 151.9921875 C-48.99306239 151.81169571 -55.23911269 151.20499213 -62 145 C-62.928125 144.154375 -63.85625 143.30875 -64.8125 142.4375 C-65.534375 141.633125 -66.25625 140.82875 -67 140 C-67.66 139.278125 -68.32 138.55625 -69 137.8125 C-74.99981061 129.37526633 -77.92382083 121.34679325 -77 111 C-75.29786337 106.78945149 -73.12429613 104.86575301 -69 103 C-66.5 102.4375 -66.5 102.4375 -64 103 C-57.96528459 108.87997912 -54.02474512 116.80029456 -50.375 124.3125 C-47.84335017 129.63102099 -47.84335017 129.63102099 -44 134 C-41.2654037 134.47558197 -38.74211132 134.37489803 -36 134 C-35.33433014 133.91122086 -34.66866028 133.82244171 -33.9828186 133.73097229 C-31.86492706 133.18624763 -31.86492706 133.18624763 -30.96713257 131.2674408 C-29.20606723 125.57784806 -28.55749464 120.44718493 -28.6015625 114.50390625 C-28.59725723 113.19352638 -28.59725723 113.19352638 -28.59286499 111.85667419 C-28.59083751 110.02219997 -28.59627449 108.18770347 -28.60888672 106.35327148 C-28.62493993 103.57290412 -28.60900314 100.79399442 -28.58984375 98.01367188 C-28.57999651 89.15190205 -28.78642854 81.36112109 -32 73 C-32.57798249 70.57922336 -33.08146289 68.15480363 -33.5703125 65.71484375 C-33.84894472 63.9797099 -33.84894472 63.9797099 -35 63 C-35.30380707 58.64419912 -35.07259379 54.57710605 -32.57470703 50.90429688 C-30.65081929 48.90869543 -28.649969 47.07362533 -26.5625 45.25 C-12.72405114 32.30058342 -4.0225525 18.739208 0 0 Z " fill="#FBF9F9" transform="translate(164,129)"/>
<path d="M0 0 C2.875 1.75 2.875 1.75 5 4 C5.79797182 7.36921435 5.09855122 8.81111016 3.5 11.875 C1.12945229 15.15020903 -1.8414576 17.62590921 -4.9296875 20.20703125 C-6.90490011 21.9176399 -8.6567168 23.71583475 -10.4375 25.625 C-15.22398666 30.44412179 -20.18498656 33.55317247 -26.9375 34.625 C-32.12970123 34.31032114 -36.57596593 31.5383802 -41 29 C-41.02686553 27.02090602 -41.04633375 25.04171029 -41.0625 23.0625 C-41.07410156 21.96035156 -41.08570313 20.85820312 -41.09765625 19.72265625 C-41 17 -41 17 -40 16 C-38.09055064 16.018989 -36.18110476 16.03891501 -34.27172852 16.06420898 C-26.67452922 16.15546833 -26.67452922 16.15546833 -20.1640625 12.7109375 C-18.03734412 9.99687341 -18.03734412 9.99687341 -16.34765625 7.15234375 C-15.90292969 6.44207031 -15.45820313 5.73179687 -15 5 C-14.34 5 -13.68 5 -13 5 C-12.773125 4.38125 -12.54625 3.7625 -12.3125 3.125 C-9.39093445 -1.60515375 -4.91540826 -1.43366074 0 0 Z " fill="#090808" transform="translate(233,296)"/>
<path d="M0 0 C2.75 2.5 2.75 2.5 5 5 C5.33 5.33 5.66 5.66 6 6 C6.13428359 8.08583397 6.20364183 10.17590414 6.24609375 12.265625 C6.27896484 13.54824219 6.31183594 14.83085937 6.34570312 16.15234375 C6.39297163 18.19738026 6.43735329 20.24239494 6.47680664 22.28759766 C6.51674456 24.2596222 6.56879046 26.23138967 6.62109375 28.203125 C6.6461499 29.38551758 6.67120605 30.56791016 6.69702148 31.78613281 C6.99446989 34.94133892 7.75292359 37.11756891 9 40 C9.53913043 46.25391304 9.53913043 46.25391304 7.7890625 48.67578125 C4.80574821 50.88395493 1.97474848 50.59299668 -1.625 50.47265625 C-4 50 -4 50 -6.4375 47.5 C-7.2109375 45.7675 -7.2109375 45.7675 -8 44 C-8.51820313 42.91976562 -9.03640625 41.83953125 -9.5703125 40.7265625 C-11.70526559 34.9617249 -11.48503307 28.9864281 -11.44604492 22.90869141 C-11.43748617 20.87170812 -11.46644527 18.83749219 -11.49804688 16.80078125 C-11.49740234 15.50269531 -11.49675781 14.20460937 -11.49609375 12.8671875 C-11.49887329 11.10544189 -11.49887329 11.10544189 -11.50170898 9.30810547 C-10.89679957 5.31953 -9.49258453 3.13454783 -7 0 C-4.19664415 -1.40167793 -2.9650644 -0.96536981 0 0 Z " fill="#080808" transform="translate(208,228)"/>
<path d="M0 0 C1.00546875 -0.00386719 2.0109375 -0.00773438 3.046875 -0.01171875 C4.0059375 -0.01042969 4.965 -0.00914062 5.953125 -0.0078125 C6.82614258 -0.00668457 7.69916016 -0.00555664 8.59863281 -0.00439453 C10.75 0.125 10.75 0.125 12.75 1.125 C12.75 5.745 12.75 10.365 12.75 15.125 C11.43644531 15.17398438 10.12289062 15.22296875 8.76953125 15.2734375 C7.03383405 15.34849468 5.29815797 15.42404123 3.5625 15.5 C2.26602539 15.54640625 2.26602539 15.54640625 0.94335938 15.59375 C-7.01914509 15.95984216 -10.90472663 17.36591569 -16.5625 23.25 C-17.44550781 24.16007812 -18.32851562 25.07015625 -19.23828125 26.0078125 C-19.90214844 26.70648438 -20.56601563 27.40515625 -21.25 28.125 C-25.04494309 26.3410524 -27.5636781 24.40828232 -30.25 21.125 C-31 18.375 -31 18.375 -30.25 15.125 C-26.72171381 9.42933801 -21.57109117 2.20016914 -14.76953125 0.5078125 C-9.83986494 -0.02837762 -4.95483095 -0.01935481 0 0 Z " fill="#080707" transform="translate(171.25,191.875)"/>
<path d="M0 0 C0.70189453 0.17402344 1.40378906 0.34804687 2.12695312 0.52734375 C5.43403368 1.37854656 7.81994832 2.21329888 10.6875 4.125 C10.98046875 7.1640625 10.98046875 7.1640625 10.875 10.75 C10.83439453 12.53277344 10.83439453 12.53277344 10.79296875 14.3515625 C10.75816406 15.26679688 10.72335937 16.18203125 10.6875 17.125 C5.02751954 17.17434926 -0.63233636 17.21069529 -6.29248047 17.23486328 C-8.21893494 17.24493582 -10.14537408 17.25859443 -12.07177734 17.27587891 C-14.83695252 17.30007241 -17.601926 17.31147036 -20.3671875 17.3203125 C-21.2318161 17.33063507 -22.0964447 17.34095764 -22.98727417 17.35159302 C-25.09703521 17.35199106 -27.20630718 17.24765243 -29.3125 17.125 C-31.3125 15.125 -31.3125 15.125 -31.5078125 12.7421875 C-31.48460937 11.83726562 -31.46140625 10.93234375 -31.4375 10 C-31.41945312 9.08992187 -31.40140625 8.17984375 -31.3828125 7.2421875 C-31.35960937 6.54351562 -31.33640625 5.84484375 -31.3125 5.125 C-29.56568707 4.14015892 -27.8149149 3.16233813 -26.0625 2.1875 C-24.60070312 1.36958984 -24.60070312 1.36958984 -23.109375 0.53515625 C-15.50846167 -3.29714782 -7.94066515 -2.1145114 0 0 Z " fill="#070606" transform="translate(260.3125,189.875)"/>
<path d="M0 0 C3.0625 2.3125 3.0625 2.3125 6 5 C6.78375 5.4125 7.5675 5.825 8.375 6.25 C10.38794404 8.41778589 10.38459759 9.46124695 10.5625 12.375 C10.40260973 16.02286699 10.10422347 16.86682557 7.75 19.875 C6.8425 20.57625 5.935 21.2775 5 22 C4.360625 22.598125 3.72125 23.19625 3.0625 23.8125 C0.06602887 25.53774095 -1.57180887 25.52741402 -5 25 C-7.8865807 23.61761915 -10.5547335 22.07176517 -13 20 C-14.35314102 15.94057693 -14.67185979 12.24018181 -14 8 C-11.75 5.125 -11.75 5.125 -9 3 C-8.34 2.401875 -7.68 1.80375 -7 1.1875 C-4.32812992 -0.39892286 -3.06666772 -0.58412719 0 0 Z " fill="#060505" transform="translate(173,226)"/>
<path d="M0 0 C3.66854268 0.08243916 4.50930505 0.30191689 7.5625 2.625 C8.26375 3.553125 8.965 4.48125 9.6875 5.4375 C10.285625 6.200625 10.88375 6.96375 11.5 7.75 C13.11029244 11.39434605 13.4243874 14.51535737 12.6875 18.4375 C10.89386089 21.2475346 9.66869065 22.94690468 6.6875 24.4375 C2.29899456 24.9047398 -1.93137339 25.00726773 -6.3125 24.4375 C-9.1875 21.9375 -9.1875 21.9375 -10.3125 18.4375 C-10.19628618 11.23224345 -8.69509334 0.24843124 0 0 Z " fill="#070505" transform="translate(247.3125,223.5625)"/>
<path d="M0 0 C6.06661564 9.09992345 2.97995381 23.49781489 1.73046875 33.75 C1.00570705 36.9746082 0.20062958 38.58835115 -2 41 C-3.65 40.67 -5.3 40.34 -7 40 C-7.12358454 35.21290532 -7.21432771 30.42673819 -7.2746582 25.63842773 C-7.29980568 24.0096825 -7.33392878 22.38105015 -7.37719727 20.75268555 C-7.4378455 18.41166366 -7.46620476 16.07213269 -7.48828125 13.73046875 C-7.51408768 13.00224411 -7.5398941 12.27401947 -7.56648254 11.52372742 C-7.56762695 9.46166992 -7.56762695 9.46166992 -7 6 C-4.59448242 4.2043457 -4.59448242 4.2043457 -2 3 C-1.34 2.01 -0.68 1.02 0 0 Z " fill="#F4F0EB" transform="translate(303,214)"/>
<path d="M0 0 C4.87362847 0.45336079 7.39042389 1.7089159 11 5 C10.67 5.66 10.34 6.32 10 7 C10.66 6.67 11.32 6.34 12 6 C13.70702735 5.93003986 15.41668003 5.91559846 17.125 5.9375 C18.03507812 5.94652344 18.94515625 5.95554687 19.8828125 5.96484375 C20.93082031 5.98224609 20.93082031 5.98224609 22 6 C22.33 6.66 22.66 7.32 23 8 C25.52733235 8.65555119 25.52733235 8.65555119 28 9 C28 9.33 28 9.66 28 10 C12.63887396 11.09288644 12.63887396 11.09288644 5.7421875 5.6015625 C1.52908587 1.72853186 1.52908587 1.72853186 0 0 Z " fill="#DEDBDB" transform="translate(98,270)"/>
<path d="M0 0 C2.29013653 3.4352048 2.17842973 4.985331 2 9 C1.01 8.67 0.02 8.34 -1 8 C-3.6569191 8.87914688 -3.6569191 8.87914688 -6 10 C-6.33 8.68 -6.66 7.36 -7 6 C-6.21625 5.566875 -5.4325 5.13375 -4.625 4.6875 C-1.78301625 3.10779753 -1.78301625 3.10779753 0 0 Z " fill="#EAE8E0" transform="translate(303,214)"/>
<path d="M0 0 C1.69141656 0.08963062 3.37959602 0.24577676 5.0625 0.4375 C6.44115234 0.59025391 6.44115234 0.59025391 7.84765625 0.74609375 C8.55792969 0.82988281 9.26820313 0.91367188 10 1 C10 1.33 10 1.66 10 2 C8.3603125 2.4021875 8.3603125 2.4021875 6.6875 2.8125 C3.07795409 3.66536779 3.07795409 3.66536779 1.3125 5.6875 C0.879375 6.120625 0.44625 6.55375 0 7 C-2.1875 6.6875 -2.1875 6.6875 -4 6 C-1.125 1.125 -1.125 1.125 0 0 Z " fill="#EBEAE6" transform="translate(307,210)"/>
<path d="M0 0 C0 3 0 3 -2.1875 5.41015625 C-3.5796875 6.72306641 -3.5796875 6.72306641 -5 8.0625 C-6.70172991 9.67205287 -8.37737425 11.31073069 -10 13 C-10 13.66 -10 14.32 -10 15 C-11.62626404 16.38232443 -13.2925002 17.71937515 -15 19 C-14.83566075 13.27003831 -10.82273925 10.37524908 -6.9375 6.6875 C-6.27427734 6.04232422 -5.61105469 5.39714844 -4.92773438 4.73242188 C-3.29382329 3.14552982 -1.65131853 1.56873672 0 0 Z " fill="#D1CFD0" transform="translate(145,167)"/>
<path d="M0 0 C0.99 0.99 1.98 1.98 3 3 C0.45807199 6.1068009 -2.13672134 7.07281312 -6 8 C-8.875 7.625 -8.875 7.625 -11 7 C-10.484375 6.773125 -9.96875 6.54625 -9.4375 6.3125 C-6.07596873 4.5024447 -3.07088856 2.26003596 0 0 Z " fill="#E2DEDF" transform="translate(181,245)"/>
<path d="M0 0 C0.66 0.33 1.32 0.66 2 1 C1.38125 1.598125 0.7625 2.19625 0.125 2.8125 C-2.13676954 5.00811144 -2.13676954 5.00811144 -4 8 C-4.33 7.34 -4.66 6.68 -5 6 C-3.35 4.02 -1.7 2.04 0 0 Z M-7 7 C-6.34 7.33 -5.68 7.66 -5 8 C-7.31 10.64 -9.62 13.28 -12 16 C-13.32 15.67 -14.64 15.34 -16 15 C-13.03 12.36 -10.06 9.72 -7 7 Z " fill="#D2D1D1" transform="translate(308,271)"/>
<path d="M0 0 C1.98 0.66 3.96 1.32 6 2 C5.67 2.99 5.34 3.98 5 5 C4.01 5 3.02 5 2 5 C2 5.66 2 6.32 2 7 C0.68 6.34 -0.64 5.68 -2 5 C-1.34 3.35 -0.68 1.7 0 0 Z " fill="#F5F2F3" transform="translate(162,248)"/>
<path d="M0 0 C0.99 0 1.98 0 3 0 C3 1.65 3 3.3 3 5 C2.34 5 1.68 5 1 5 C1.33 5.66 1.66 6.32 2 7 C2.039992 8.99960012 2.04346799 11.00047242 2 13 C-0.39692342 9.16492253 -0.63714778 5.42679713 -1 1 C-0.67 0.67 -0.34 0.34 0 0 Z " fill="#E8E5E6" transform="translate(129,283)"/>
<path d="M0 0 C0.33 0.66 0.66 1.32 1 2 C0.0625 4.125 0.0625 4.125 -1 6 C-1.66 6 -2.32 6 -3 6 C-4.62514468 7.45833358 -4.62514468 7.45833358 -6 9 C-6 6.69 -6 4.38 -6 2 C-3.525 2.495 -3.525 2.495 -1 3 C-0.67 2.01 -0.34 1.02 0 0 Z " fill="#444040" transform="translate(302,252)"/>
<path d="M0 0 C0.33 0 0.66 0 1 0 C1.66 3.3 2.32 6.6 3 10 C-1 11 -1 11 -3 10 C-2.34 9.01 -1.68 8.02 -1 7 C-0.60612212 4.67612053 -0.26513915 2.34206251 0 0 Z " fill="#CBC6C7" transform="translate(260,235)"/>
<path d="M0 0 C0.66 0.33 1.32 0.66 2 1 C1.01 2.485 1.01 2.485 0 4 C0.33 4.66 0.66 5.32 1 6 C-0.65 6.66 -2.3 7.32 -4 8 C-4 7.34 -4 6.68 -4 6 C-4.66 5.67 -5.32 5.34 -6 5 C-4.02 3.35 -2.04 1.7 0 0 Z " fill="#232220" transform="translate(154,193)"/>
<path d="M0 0 C3.67420866 0.30618405 4.78135513 0.75771784 7.3125 3.5625 C8.1478125 4.7690625 8.1478125 4.7690625 9 6 C8.67 6.66 8.34 7.32 8 8 C6.0625 7.25 6.0625 7.25 4 6 C3.63837971 4.67405895 3.30271961 3.34061543 3 2 C2.01 1.67 1.02 1.34 0 1 C0 0.67 0 0.34 0 0 Z " fill="#312C2D" transform="translate(249,224)"/>
<path d="M0 0 C0.33 0.66 0.66 1.32 1 2 C1.66 2.33 2.32 2.66 3 3 C1.35 3.66 -0.3 4.32 -2 5 C-3.65 3.68 -5.3 2.36 -7 1 C-3.535 0.505 -3.535 0.505 0 0 Z " fill="#E0DFDD" transform="translate(211,225)"/>
<path d="M0 0 C0.99 0.33 1.98 0.66 3 1 C2.0409375 1.7425 2.0409375 1.7425 1.0625 2.5 C-1.81515269 5.98806387 -1.70230736 8.53461041 -2 13 C-2.33 13 -2.66 13 -3 13 C-3.4726477 4.80743982 -3.4726477 4.80743982 -1.5 1.4375 C-0.7575 0.7259375 -0.7575 0.7259375 0 0 Z " fill="#373535" transform="translate(162,230)"/>
<path d="M0 0 C2.31 0.33 4.62 0.66 7 1 C7.33 1.99 7.66 2.98 8 4 C7.01 4.33 6.02 4.66 5 5 C3.35 3.35 1.7 1.7 0 0 Z " fill="#D3D0CF" transform="translate(174,227)"/>
<path d="M0 0 C1 3 1 3 0.0625 5.1875 C-0.4634375 6.0846875 -0.4634375 6.0846875 -1 7 C-1.66 7 -2.32 7 -3 7 C-3.66 5.68 -4.32 4.36 -5 3 C-3.35 2.67 -1.7 2.34 0 2 C0 1.34 0 0.68 0 0 Z " fill="#F7F2F2" transform="translate(261,225)"/>
<path d="M0 0 C2.29013653 3.4352048 2.17842973 4.985331 2 9 C1.34 9 0.68 9 0 9 C-1.125 6.1875 -1.125 6.1875 -2 3 C-1.34 2.01 -0.68 1.02 0 0 Z " fill="#C4C0BA" transform="translate(303,214)"/>
<path d="M0 0 C2.475 0.99 2.475 0.99 5 2 C4.01 2.495 4.01 2.495 3 3 C2.67 3.99 2.34 4.98 2 6 C1.01 5.67 0.02 5.34 -1 5 C-0.67 3.35 -0.34 1.7 0 0 Z " fill="#160F11" transform="translate(161,345)"/>
<path d="M0 0 C-0.66 0.66 -1.32 1.32 -2 2 C-2.99 2 -3.98 2 -5 2 C-5 2.66 -5 3.32 -5 4 C-8 3 -8 3 -11 1 C-9.5437328 0.63743142 -8.08488815 0.28520207 -6.625 -0.0625 C-5.40683594 -0.35833984 -5.40683594 -0.35833984 -4.1640625 -0.66015625 C-2 -1 -2 -1 0 0 Z " fill="#313131" transform="translate(163,41)"/>
<path d="M0 0 C1.98 0.66 3.96 1.32 6 2 C4.68 3.32 3.36 4.64 2 6 C0 3 0 3 0 0 Z " fill="#E8E7E8" transform="translate(194,326)"/>
<path d="M0 0 C0.99 0.66 1.98 1.32 3 2 C2.01 3.32 1.02 4.64 0 6 C-0.99 5.67 -1.98 5.34 -3 5 C-3 4.34 -3 3.68 -3 3 C-2.34 3 -1.68 3 -1 3 C-0.67 2.01 -0.34 1.02 0 0 Z " fill="#171314" transform="translate(180,241)"/>
<path d="M0 0 C2 1 2 1 3 2 C3 2.66 3 3.32 3 4 C2.401875 4.103125 1.80375 4.20625 1.1875 4.3125 C-1.28243264 5.08876455 -2.32251235 6.07088921 -4 8 C-2.25 2.25 -2.25 2.25 0 0 Z " fill="#3B3738" transform="translate(243,224)"/>
<path d="M0 0 C0.66 0.33 1.32 0.66 2 1 C0.1875 4 0.1875 4 -2 7 C-2.99 7 -3.98 7 -5 7 C-5 6.01 -5 5.02 -5 4 C-2.5 1.8125 -2.5 1.8125 0 0 Z " fill="#373633" transform="translate(310,213)"/>
<path d="M0 0 C0.98120464 3.05263664 0.98120464 4.94736336 0 8 C-3 3.25 -3 3.25 -3 1 C-2.01 0.67 -1.02 0.34 0 0 Z " fill="#DDD8DA" transform="translate(94,257)"/>
<path d="M0 0 C-1.32 0.33 -2.64 0.66 -4 1 C-4.33 2.32 -4.66 3.64 -5 5 C-6.32 4.34 -7.64 3.68 -9 3 C-5.92807025 0.26939578 -4.09590633 -0.34132553 0 0 Z " fill="#494546" transform="translate(173,226)"/>
</svg>
